<?xml version="1.0" encoding="UTF-8"?>
<svg id="Calque_2" data-name="Calque 2" xmlns="http://www.w3.org/2000/svg" viewBox="0 0 362.25 87.59">
  <defs>
    <style>
      .cls-1 {
        fill: #041b56;
      }

      .cls-2 {
        fill: #bf0000;
      }
    </style>
  </defs>
  <g id="Calque_1-2" data-name="Calque 1">
    <g>
      <path class="cls-2" d="M354.21,17.73c-.18-.12-.65-.34-1.06.14l-4.26,4.3.19.39c2.46,5.19,2.51,11.21.12,16.53-2.37,5.28-6.85,9.21-12.3,10.79-6.78,1.97-13.87.31-18.98-4.42-1.05-.97-1.97-2.04-2.76-3.17.24-2.27.48-4.54.72-6.81,1.22,4.31,4.24,7.92,8.62,9.98,2.28,1.07,4.65,1.59,6.97,1.59,4.48,0,8.8-1.94,11.98-5.63,3.09-3.57,5.07-10.25,3.09-15.28v-.27s-.23-.19-.23-.19c-.25-.21-.54-.16-.65-.14l-.2.03-4.58,4.59v.27c.21,3.9-1.87,7.41-5.41,9.17-3.47,1.72-7.45,1.25-10.39-1.23-3.86-3.26-3.94-7.72-2.73-10.81,1.55-3.95,5.24-6.36,9.49-6.19h.31s.2-.22.2-.22c.52-.63,1.22-1.26,1.9-1.87.79-.71,1.61-1.45,2.21-2.23.26-.24.36-.53.27-.86l-.08-.33-.32-.11c-4.43-1.44-9.3-.86-13.36,1.59-2.48,1.5-4.47,3.61-5.8,6.06.24-2.27.48-4.53.72-6.8,1.36-1.25,2.9-2.35,4.62-3.2,5.49-2.73,11.76-2.81,17.21-.23l.39.19,4.39-4.35c.08-.1.48-.61-.12-1.14-.21-.19-.72-.45-2.04-1.05-7.98-3.64-17.26-3.09-24.83,1.47-.55.33-1.08.68-1.59,1.05l-12-.3c-.89-.03-1.65.63-1.75,1.52l-6.92,64.19c-.22,1.88-.34,3.57-.34,5.07,0,2.03.26,3.64.79,4.84.52,1.2,1.43,1.8,2.7,1.8h10.42c.95,0,1.75-.72,1.85-1.66,1.18-11.14,2.36-22.29,3.54-33.43,3.77,3.17,8.4,5.33,13.42,6,.25.03.5.05.76.06.42.02.81.05,1.14.15l.18.03h3.09c8.52-.5,16.07-4.91,20.73-12.12,4.69-7.27,5.61-16.06,2.52-24.13-.01-.03-1.33-3.31-1.81-3.63Z"/>
      <path class="cls-2" d="M346.81,10.93l-14.24,14.24c-.19.02-.63-.02-.89-.04-.37-.03-.72-.06-1.01-.04-1.84.16-3.45,1.17-4.42,2.78-1,1.65-1.16,3.68-.42,5.45,1.07,2.56,3.28,3.6,5.34,3.6.42,0,.83-.04,1.22-.12,2.41-.5,4.83-2.63,4.78-6.26,0-.19-.04-.36-.08-.5-.02-.08-.05-.2-.11-.14l14.45-14.45c.2-.02.67.07.96.12.45.09.88.17,1.23.12l.21-.03,8.42-8.42-6.29-.95-.95-6.3-8.42,8.42-.02.22c-.04.37.04.8.13,1.26.06.3.16.84.12,1.04Z"/>
    </g>
    <path class="cls-1" d="M17.7,86.44H2.11c-.73,0-1.29-.2-1.65-.61-.37-.4-.51-.97-.44-1.71L9.44,11.09c.07-.66.32-1.17.74-1.51.42-.35.96-.52,1.63-.52h18.23c1.28,0,2.09.62,2.42,1.87l13.33,48.09,13.28-48.09c.33-1.25,1.14-1.87,2.42-1.87h18.29c.66,0,1.2.17,1.63.52.42.35.67.85.74,1.51l9.47,73.1c.07.73-.07,1.3-.44,1.71-.37.4-.92.61-1.65.61h-15.64c-1.36,0-2.13-.7-2.31-2.09l-4.63-43.52-11.9,43.68c-.33,1.25-1.14,1.87-2.42,1.87h-13.44c-1.29,0-2.09-.62-2.42-1.87l-11.9-43.68-4.85,43.46c-.18,1.4-.95,2.09-2.31,2.09Z"/>
    <path class="cls-1" d="M135.31,40.73h7.26c1.01,0,1.51.5,1.51,1.51v42.7c0,1.01-.5,1.51-1.51,1.51h-7.52c-.83,0-1.41-.39-1.74-1.17l-.94-2.27c-3.15,2.95-7.1,4.42-11.87,4.42-4.31,0-8.28-1.06-11.9-3.19s-6.5-5.01-8.62-8.65c-2.12-3.64-3.17-7.63-3.17-11.96s1.06-8.27,3.19-11.88,5.01-6.48,8.64-8.6,7.58-3.17,11.87-3.17c4.81,0,8.81,1.5,11.98,4.5l1.1-2.57c.33-.78.91-1.17,1.74-1.17ZM126.45,73.7c1.73-.97,3.09-2.32,4.08-4.04.99-1.72,1.49-3.67,1.49-5.84s-.49-4.16-1.47-5.91c-.98-1.75-2.33-3.13-4.04-4.14-1.71-1.01-3.62-1.51-5.71-1.51s-3.99.5-5.69,1.49c-1.7,1-3.04,2.37-4.01,4.14-.97,1.76-1.45,3.74-1.45,5.93s.48,4.14,1.44,5.86c.96,1.71,2.27,3.06,3.95,4.02,1.68.97,3.57,1.45,5.69,1.45s4-.48,5.73-1.45Z"/>
    <path class="cls-1" d="M166.38,86.46h-9.83c-1.01,0-1.51-.5-1.51-1.51v-32.31h-3.78c-1.01,0-1.51-.5-1.51-1.51v-8.88c0-1.01.5-1.51,1.51-1.51h3.7v-8.24c0-.93.45-1.49,1.36-1.66l9.94-1.93c.1-.03.23-.04.38-.04.4,0,.72.13.94.38.23.25.34.59.34,1.02v10.47h7.1c1.01,0,1.51.5,1.51,1.51v8.88c0,1.01-.5,1.51-1.51,1.51h-7.14v32.31c0,1.01-.5,1.51-1.51,1.51Z"/>
    <path class="cls-1" d="M190.24,84.4c-3.59-2.13-6.4-5.01-8.43-8.64-2.03-3.63-3.04-7.6-3.04-11.9s1.01-8.36,3.02-12c2.02-3.64,4.82-6.53,8.43-8.67s7.67-3.21,12.21-3.21c2.97,0,5.76.44,8.37,1.32,2.61.88,4.94,2.13,7.01,3.74.43.35.64.73.64,1.13,0,.3-.11.63-.34.98l-4.8,6.84c-.33.48-.71.72-1.13.72-.28,0-.6-.13-.98-.38-1.28-.88-2.57-1.55-3.85-2-1.29-.45-2.76-.68-4.42-.68-2.04,0-3.93.53-5.67,1.59-1.74,1.06-3.12,2.51-4.16,4.37-1.03,1.85-1.55,3.94-1.55,6.25s.52,4.32,1.57,6.16c1.05,1.84,2.44,3.28,4.19,4.33,1.75,1.05,3.63,1.57,5.65,1.57,1.64,0,3.1-.22,4.4-.66,1.3-.44,2.58-1.1,3.84-1.98.38-.25.71-.38.98-.38.43,0,.81.24,1.13.72l4.8,6.84c.25.35.38.69.38,1.02s-.15.63-.45.91c-2.09,1.66-4.46,2.95-7.1,3.86-2.65.91-5.5,1.36-8.58,1.36-4.48,0-8.52-1.07-12.11-3.19Z"/>
    <path class="cls-1" d="M262.51,42.51c2.8,1.69,4.96,4.08,6.5,7.16,1.54,3.09,2.31,6.66,2.31,10.71v24.56c0,1.01-.5,1.51-1.51,1.51h-9.83c-1.01,0-1.51-.5-1.51-1.51v-23.13c0-2.02-.37-3.79-1.11-5.31-.74-1.52-1.79-2.7-3.14-3.53s-2.92-1.25-4.7-1.25c-1.89,0-3.62.45-5.2,1.34-1.57.89-2.82,2.07-3.72,3.53s-1.36,3.01-1.36,4.65v23.69c0,1.01-.5,1.51-1.51,1.51h-9.71c-1.01,0-1.51-.5-1.51-1.51V28.91c0-1.01.5-1.51,1.51-1.51h9.71c1.01,0,1.51.51,1.51,1.51v16.48c1.76-1.59,3.89-2.88,6.39-3.89,2.49-1.01,4.87-1.51,7.14-1.51,3.7,0,6.95.84,9.75,2.53Z"/>
    <path class="cls-1" d="M283.49,57.06c-.4,0-.77-.16-1.1-.49l-2.04-1.89c-.35-.35-.53-.7-.53-1.06s.18-.73.53-1.13c1.59-1.59,2.73-2.97,3.44-4.14s1.06-2.24,1.06-3.19v-.34h-.13c-3.6,0-6.52-2.92-6.52-6.52h0c0-3.6,2.92-6.52,6.52-6.52h1.21c3.6,0,6.52,2.92,6.52,6.52v3.84c0,2.75-.74,5.34-2.23,7.77-1.49,2.43-3.38,4.67-5.67,6.71-.33.3-.68.45-1.06.45Z"/>
  </g>
</svg>