<?xml version="1.0" encoding="UTF-8"?>
<svg id="Calque_2" data-name="Calque 2" xmlns="http://www.w3.org/2000/svg" viewBox="0 0 60.15 77.2">
  <defs>
    <style>
      .cls-1 {
        fill: #bf0000;
      }
    </style>
  </defs>
  <g id="Calque_1-2" data-name="Calque 1">
    <g>
      <path class="cls-1" d="M52.97,15.83c-.16-.11-.58-.31-.94.12l-3.81,3.84.17.35c2.2,4.63,2.24,10.01.1,14.76-2.12,4.71-6.12,8.22-10.98,9.63-6.05,1.76-12.39.28-16.95-3.95-.94-.87-1.76-1.82-2.47-2.83.21-2.03.43-4.05.64-6.08,1.09,3.84,3.78,7.07,7.7,8.91,2.04.96,4.15,1.42,6.22,1.42,4,0,7.86-1.74,10.7-5.03,2.76-3.19,4.53-9.15,2.76-13.64v-.24s-.2-.17-.2-.17c-.22-.19-.48-.15-.58-.13l-.17.03-4.09,4.09v.25c.19,3.48-1.67,6.62-4.83,8.19-3.1,1.54-6.65,1.12-9.27-1.1-3.45-2.91-3.52-6.9-2.44-9.65,1.38-3.53,4.68-5.68,8.47-5.53h.27s.17-.2.17-.2c.47-.56,1.09-1.12,1.69-1.67.71-.64,1.43-1.3,1.97-1.99.24-.22.32-.48.24-.77l-.08-.29-.29-.09c-3.96-1.29-8.31-.77-11.93,1.42-2.21,1.34-3.99,3.22-5.18,5.41.21-2.02.43-4.05.64-6.07,1.22-1.12,2.59-2.1,4.13-2.86,4.9-2.44,10.5-2.51,15.37-.2l.35.17,3.92-3.89c.08-.09.43-.55-.1-1.02-.19-.17-.64-.4-1.82-.94-7.12-3.25-15.41-2.76-22.17,1.32-.49.29-.96.61-1.42.93l-10.72-.27c-.79-.03-1.47.56-1.56,1.35L.3,66.74c-.2,1.68-.3,3.18-.3,4.52,0,1.81.23,3.25.7,4.32.47,1.07,1.27,1.61,2.41,1.61h9.31c.85,0,1.56-.64,1.65-1.48,1.05-9.95,2.11-19.9,3.16-29.85,3.37,2.83,7.5,4.76,11.98,5.36.22.03.45.04.68.06.37.02.73.04,1.02.13l.16.02h2.75c7.61-.44,14.35-4.39,18.51-10.82,4.19-6.49,5.01-14.34,2.25-21.54-.01-.03-1.19-2.95-1.62-3.24Z"/>
      <path class="cls-1" d="M46.36,9.76l-12.71,12.72c-.17.02-.56-.01-.8-.03-.33-.03-.65-.06-.9-.03-1.64.14-3.08,1.05-3.95,2.48-.89,1.47-1.03,3.29-.38,4.86.95,2.28,2.93,3.22,4.77,3.22.37,0,.74-.04,1.09-.11,2.15-.45,4.31-2.35,4.27-5.59,0-.17-.04-.32-.07-.45-.02-.07-.04-.18-.1-.13l12.9-12.9c.18-.02.6.06.86.11.4.08.78.15,1.1.11l.19-.02,7.52-7.52-5.62-.85-.85-5.62-7.52,7.52-.02.19c-.04.33.04.71.11,1.12.05.27.14.75.11.93Z"/>
    </g>
  </g>
</svg>