<?xml version="1.0" encoding="UTF-8"?>
<svg id="Calque_2" data-name="Calque 2" xmlns="http://www.w3.org/2000/svg" xmlns:xlink="http://www.w3.org/1999/xlink" viewBox="0 0 1843.28 1118.38">
  <defs>
    <style>
      .cls-1 {
        clip-path: url(#clippath);
      }

      .cls-2 {
        fill: none;
      }

      .cls-2, .cls-3 {
        stroke-width: 0px;
      }

      .cls-3 {
        fill: #bf1818;
      }
    </style>
    <clipPath id="clippath">
      <path class="cls-2" d="M40.72,94.7v930.88c0,41.18,55.13,74.56,123.14,74.56h1537.39c68.01,0,123.14-33.38,123.14-74.56V94.7c0-41.18-55.13-74.56-123.14-74.56H163.86c-68.01,0-123.14,33.38-123.14,74.56ZM1556.6,1008.7H294.59c-68.01,0-123.14-33.38-123.14-74.56V170c0-41.18,55.13-74.56,123.14-74.56h1262.01c68.01,0,123.14,33.38,123.14,74.56v764.14c0,41.18-55.13,74.56-123.14,74.56Z"/>
    </clipPath>
  </defs>
  <g class="cls-1">
    <g>
      <g>
        <g>
          <path class="cls-3" d="M144.51,1124.58l-223.75-113.68,187.76-135.48,223.75,113.68-187.75,135.48ZM-56.68,1009.7l199.21,101.21,167.16-120.62-199.21-101.21-167.16,120.62Z"/>
          <path class="cls-3" d="M140.5,1091.83l-167.36-85.03,140.43-101.33,167.36,85.03-140.43,101.33ZM-4.29,1005.61l142.82,72.56,119.84-86.48-142.82-72.56L-4.29,1005.61Z"/>
          <path class="cls-3" d="M135.52,1057.38l-105.48-53.59,88.51-63.87,105.48,53.59-88.51,63.87ZM52.61,1002.59l80.94,41.12,67.92-49.01-80.94-41.12-67.91,49.01Z"/>
          <path class="cls-3" d="M129.52,1020.82l-37.4-19,31.38-22.65,37.4,19-31.38,22.65ZM114.68,1000.62l12.86,6.53,10.79-7.79-12.86-6.53-10.79,7.79Z"/>
        </g>
        <g>
          <path class="cls-3" d="M401.28,1267.57l-248.03-126.02,208.13-150.18,248.03,126.02-208.13,150.18ZM175.82,1140.35l223.49,113.55,187.53-135.32-223.49-113.55-187.53,135.32Z"/>
          <path class="cls-3" d="M396.82,1231.06l-185.16-94.08,155.37-112.12,185.16,94.08-155.37,112.12ZM234.22,1135.79l160.63,81.61,134.78-97.26-160.63-81.61-134.78,97.26Z"/>
          <path class="cls-3" d="M391.27,1192.65l-116.18-59.03,97.49-70.35,116.18,59.03-97.49,70.35ZM297.66,1132.43l91.64,46.56,76.89-55.49-91.64-46.56-76.9,55.49Z"/>
          <path class="cls-3" d="M385.71,1155.26l-48.84-24.81,40.97-29.56,48.83,24.81-40.97,29.56ZM359.44,1129.26l24.29,12.34,20.38-14.71-24.29-12.34-20.38,14.71Z"/>
        </g>
      </g>
      <g>
        <g>
          <path class="cls-3" d="M623.42,1106.35l-223.75-113.68,187.76-135.48,223.75,113.68-187.75,135.48ZM422.24,991.48l199.21,101.21,167.16-120.62-199.21-101.21-167.16,120.62Z"/>
          <path class="cls-3" d="M619.42,1073.61l-167.36-85.03,140.43-101.33,167.36,85.03-140.43,101.33ZM474.63,987.39l142.82,72.56,119.84-86.48-142.82-72.56-119.83,86.48Z"/>
          <path class="cls-3" d="M614.44,1039.15l-105.48-53.59,88.51-63.87,105.48,53.59-88.51,63.87ZM531.53,984.37l80.94,41.12,67.92-49.01-80.94-41.12-67.91,49.01Z"/>
          <path class="cls-3" d="M608.43,1002.6l-37.4-19,31.38-22.65,37.4,19-31.38,22.65ZM593.6,982.4l12.86,6.53,10.79-7.79-12.86-6.53-10.79,7.79Z"/>
        </g>
        <g>
          <path class="cls-3" d="M880.2,1249.34l-248.03-126.02,208.13-150.18,248.03,126.02-208.13,150.18ZM654.73,1122.13l223.49,113.55,187.53-135.32-223.49-113.55-187.53,135.32Z"/>
          <path class="cls-3" d="M875.74,1212.84l-185.16-94.08,155.37-112.12,185.16,94.08-155.37,112.12ZM713.14,1117.57l160.63,81.61,134.78-97.26-160.63-81.61-134.78,97.26Z"/>
          <path class="cls-3" d="M870.19,1174.43l-116.18-59.03,97.49-70.35,116.18,59.03-97.49,70.35ZM776.57,1114.21l91.64,46.56,76.89-55.49-91.64-46.56-76.9,55.49Z"/>
          <path class="cls-3" d="M864.62,1137.04l-48.84-24.81,40.97-29.56,48.83,24.81-40.97,29.56ZM838.35,1111.03l24.29,12.34,20.38-14.71-24.29-12.34-20.38,14.71Z"/>
        </g>
      </g>
      <g>
        <g>
          <path class="cls-3" d="M1100.06,1088.13l-223.75-113.68,187.76-135.48,223.75,113.68-187.75,135.48ZM898.88,973.25l199.21,101.21,167.16-120.62-199.21-101.21-167.16,120.62Z"/>
          <path class="cls-3" d="M1096.05,1055.39l-167.36-85.03,140.43-101.33,167.36,85.03-140.43,101.33ZM951.27,969.16l142.82,72.56,119.84-86.48-142.82-72.56-119.83,86.48Z"/>
          <path class="cls-3" d="M1091.08,1020.93l-105.48-53.59,88.51-63.87,105.48,53.59-88.51,63.87ZM1008.17,966.15l80.94,41.12,67.92-49.01-80.94-41.12-67.91,49.01Z"/>
          <path class="cls-3" d="M1085.07,984.37l-37.4-19,31.38-22.65,37.4,19-31.38,22.65ZM1070.23,964.18l12.86,6.53,10.79-7.79-12.86-6.53-10.79,7.79Z"/>
        </g>
        <g>
          <path class="cls-3" d="M1356.84,1231.12l-248.03-126.02,208.13-150.18,248.03,126.02-208.13,150.18ZM1131.37,1103.91l223.49,113.55,187.53-135.32-223.49-113.55-187.53,135.32Z"/>
          <path class="cls-3" d="M1352.37,1194.61l-185.16-94.08,155.37-112.12,185.16,94.08-155.37,112.12ZM1189.77,1099.34l160.63,81.61,134.78-97.26-160.63-81.61-134.78,97.26Z"/>
          <path class="cls-3" d="M1346.82,1156.2l-116.18-59.03,97.49-70.35,116.18,59.03-97.49,70.35ZM1253.21,1095.98l91.64,46.56,76.89-55.49-91.64-46.56-76.9,55.49Z"/>
          <path class="cls-3" d="M1341.26,1118.81l-48.84-24.81,40.97-29.56,48.83,24.81-40.97,29.56ZM1314.99,1092.81l24.29,12.34,20.38-14.71-24.29-12.34-20.38,14.71Z"/>
        </g>
      </g>
      <g>
        <g>
          <path class="cls-3" d="M1574.4,1066.26l-223.75-113.68,187.76-135.48,223.75,113.68-187.75,135.48ZM1373.22,951.39l199.21,101.21,167.16-120.62-199.21-101.21-167.16,120.62Z"/>
          <path class="cls-3" d="M1570.39,1033.52l-167.36-85.03,140.43-101.33,167.36,85.03-140.43,101.33ZM1425.61,947.29l142.82,72.56,119.84-86.48-142.82-72.56-119.83,86.48Z"/>
          <path class="cls-3" d="M1565.42,999.06l-105.48-53.59,88.51-63.87,105.48,53.59-88.51,63.87ZM1482.51,944.28l80.94,41.12,67.92-49.01-80.94-41.12-67.91,49.01Z"/>
          <path class="cls-3" d="M1559.41,962.51l-37.4-19,31.38-22.65,37.4,19-31.38,22.65ZM1544.58,942.31l12.86,6.53,10.79-7.79-12.86-6.53-10.79,7.79Z"/>
        </g>
        <g>
          <path class="cls-3" d="M1831.18,1209.25l-248.03-126.02,208.13-150.18,248.03,126.02-208.13,150.18ZM1605.71,1082.04l223.49,113.55,187.53-135.32-223.49-113.55-187.53,135.32Z"/>
          <path class="cls-3" d="M1826.71,1172.75l-185.16-94.08,155.37-112.12,185.16,94.08-155.37,112.12ZM1664.11,1077.48l160.63,81.61,134.78-97.26-160.63-81.61-134.78,97.26Z"/>
          <path class="cls-3" d="M1821.16,1134.34l-116.18-59.03,97.49-70.35,116.18,59.03-97.49,70.35ZM1727.55,1074.12l91.64,46.56,76.89-55.49-91.64-46.56-76.9,55.49Z"/>
          <path class="cls-3" d="M1815.6,1096.95l-48.84-24.81,40.97-29.56,48.83,24.81-40.97,29.56ZM1789.33,1070.94l24.29,12.34,20.38-14.71-24.29-12.34-20.38,14.71Z"/>
        </g>
      </g>
      <path class="cls-3" d="M367.21,985.63l-248.03-126.02,208.13-150.18,248.03,126.02-208.13,150.18ZM141.75,858.42l223.49,113.55,187.53-135.32-223.49-113.55-187.53,135.32Z"/>
      <path class="cls-3" d="M362.75,949.13l-185.16-94.08,155.37-112.12,185.16,94.08-155.37,112.12ZM200.15,853.86l160.63,81.61,134.78-97.26-160.63-81.61-134.78,97.26Z"/>
      <path class="cls-3" d="M357.2,910.72l-116.18-59.03,97.49-70.35,116.18,59.03-97.49,70.35ZM263.59,850.5l91.64,46.56,76.89-55.49-91.64-46.56-76.9,55.49Z"/>
      <path class="cls-3" d="M352.86,873.22l-48.84-24.81,40.97-29.56,48.83,24.81-40.97,29.56ZM326.59,847.22l24.29,12.34,20.38-14.71-24.29-12.34-20.38,14.71Z"/>
      <g>
        <path class="cls-3" d="M846.13,967.41l-248.03-126.02,208.13-150.18,248.03,126.02-208.13,150.18ZM620.66,840.2l223.49,113.55,187.53-135.32-223.49-113.55-187.53,135.32Z"/>
        <path class="cls-3" d="M841.67,930.91l-185.16-94.08,155.37-112.12,185.16,94.08-155.37,112.12ZM679.07,835.64l160.63,81.61,134.78-97.26-160.63-81.61-134.78,97.26Z"/>
        <path class="cls-3" d="M836.12,892.5l-116.18-59.03,97.49-70.35,116.18,59.03-97.49,70.35ZM742.5,832.28l91.64,46.56,76.89-55.49-91.64-46.56-76.9,55.49Z"/>
        <path class="cls-3" d="M830.55,855.11l-48.84-24.81,40.97-29.56,48.83,24.81-40.97,29.56ZM804.28,829.1l24.29,12.34,20.38-14.71-24.29-12.34-20.38,14.71Z"/>
      </g>
      <g>
        <path class="cls-3" d="M1322.77,949.19l-248.03-126.02,208.13-150.18,248.03,126.02-208.13,150.18ZM1097.3,821.98l223.49,113.55,187.53-135.32-223.49-113.55-187.53,135.32Z"/>
        <path class="cls-3" d="M1318.3,912.68l-185.16-94.08,155.37-112.12,185.16,94.08-155.37,112.12ZM1155.71,817.41l160.63,81.61,134.78-97.26-160.63-81.61-134.78,97.26Z"/>
        <path class="cls-3" d="M1312.75,874.27l-116.18-59.03,97.49-70.35,116.18,59.03-97.49,70.35ZM1219.14,814.05l91.64,46.56,76.89-55.49-91.64-46.56-76.9,55.49Z"/>
        <path class="cls-3" d="M1307.19,836.88l-48.84-24.81,40.97-29.56,48.83,24.81-40.97,29.56ZM1280.92,810.88l24.29,12.34,20.38-14.71-24.29-12.34-20.38,14.71Z"/>
      </g>
      <g>
        <path class="cls-3" d="M1797.11,927.32l-248.03-126.02,208.13-150.18,248.03,126.02-208.13,150.18ZM1571.64,800.11l223.49,113.55,187.53-135.32-223.49-113.55-187.53,135.32Z"/>
        <path class="cls-3" d="M1792.64,890.82l-185.16-94.08,155.37-112.12,185.16,94.08-155.37,112.12ZM1630.05,795.55l160.63,81.61,134.78-97.26-160.63-81.61-134.78,97.26Z"/>
        <path class="cls-3" d="M1787.1,852.41l-116.18-59.03,97.49-70.35,116.18,59.03-97.49,70.35ZM1693.48,792.18l91.64,46.56,76.89-55.49-91.64-46.56-76.9,55.49Z"/>
        <path class="cls-3" d="M1781.53,815.01l-48.84-24.81,40.97-29.56,48.83,24.81-40.97,29.56ZM1755.26,789.01l24.29,12.34,20.38-14.71-24.29-12.34-20.38,14.71Z"/>
      </g>
      <g>
        <path class="cls-3" d="M-144.95,695.98l-223.75-113.68,187.76-135.48,223.75,113.68-187.75,135.48ZM-346.13,581.1l199.21,101.21,167.16-120.62-199.21-101.21-167.16,120.62Z"/>
        <g>
          <path class="cls-3" d="M111.82,838.97l-248.03-126.02,208.13-150.18,248.03,126.02-208.13,150.18ZM-113.64,711.76l223.49,113.55,187.53-135.32-223.49-113.55-187.53,135.32Z"/>
          <path class="cls-3" d="M107.36,802.46l-185.16-94.08,155.37-112.12,185.16,94.08-155.37,112.12ZM-55.24,707.19l160.63,81.61,134.78-97.26-160.63-81.61-134.78,97.26Z"/>
          <path class="cls-3" d="M101.81,764.05l-116.18-59.03,97.49-70.35,116.18,59.03-97.49,70.35ZM8.2,703.83l91.64,46.56,76.89-55.49-91.64-46.56-76.9,55.49Z"/>
          <path class="cls-3" d="M96.25,726.66l-48.84-24.81,40.97-29.56,48.83,24.81-40.97,29.56ZM69.98,700.66l24.29,12.34,20.38-14.71-24.29-12.34-20.38,14.71Z"/>
        </g>
      </g>
      <g>
        <g>
          <path class="cls-3" d="M334.11,677.09l-223.75-113.68,187.76-135.48,223.75,113.68-187.75,135.48ZM132.93,562.21l199.21,101.21,167.16-120.62-199.21-101.21-167.16,120.62Z"/>
          <path class="cls-3" d="M330.11,644.35l-167.36-85.03,140.43-101.33,167.36,85.03-140.43,101.33ZM185.32,558.12l142.82,72.56,119.84-86.48-142.82-72.56-119.83,86.48Z"/>
          <path class="cls-3" d="M325.13,609.89l-105.48-53.59,88.51-63.87,105.48,53.59-88.51,63.87ZM242.22,555.11l80.94,41.12,67.92-49.01-80.94-41.12-67.91,49.01Z"/>
          <path class="cls-3" d="M319.12,573.33l-37.4-19,31.38-22.65,37.4,19-31.38,22.65ZM304.29,553.14l12.86,6.53,10.79-7.79-12.86-6.53-10.79,7.79Z"/>
        </g>
        <g>
          <path class="cls-3" d="M590.89,820.08l-248.03-126.02,208.13-150.18,248.03,126.02-208.13,150.18ZM365.42,692.87l223.49,113.55,187.53-135.32-223.49-113.55-187.53,135.32Z"/>
          <path class="cls-3" d="M586.43,783.57l-185.16-94.08,155.37-112.12,185.16,94.08-155.37,112.12ZM423.83,688.3l160.63,81.61,134.78-97.26-160.63-81.61-134.78,97.26Z"/>
          <path class="cls-3" d="M580.88,745.17l-116.18-59.03,97.49-70.35,116.18,59.03-97.49,70.35ZM487.26,684.94l91.64,46.56,76.89-55.49-91.64-46.56-76.9,55.49Z"/>
          <path class="cls-3" d="M575.31,707.77l-48.84-24.81,40.97-29.56,48.83,24.81-40.97,29.56ZM549.04,681.77l24.29,12.34,20.38-14.71-24.29-12.34-20.38,14.71Z"/>
        </g>
      </g>
      <g>
        <g>
          <path class="cls-3" d="M810.6,659.54l-223.75-113.68,187.76-135.48,223.75,113.68-187.75,135.48ZM609.42,544.66l199.21,101.21,167.16-120.62-199.21-101.21-167.16,120.62Z"/>
          <path class="cls-3" d="M806.6,626.79l-167.36-85.03,140.43-101.33,167.36,85.03-140.43,101.33ZM661.81,540.57l142.82,72.56,119.84-86.48-142.82-72.56-119.83,86.48Z"/>
          <path class="cls-3" d="M801.62,592.34l-105.48-53.59,88.51-63.87,105.48,53.59-88.51,63.87ZM718.71,537.55l80.94,41.12,67.92-49.01-80.94-41.12-67.91,49.01Z"/>
          <path class="cls-3" d="M795.61,555.78l-37.4-19,31.38-22.65,37.4,19-31.38,22.65ZM780.78,535.58l12.86,6.53,10.79-7.79-12.86-6.53-10.79,7.79Z"/>
        </g>
        <g>
          <path class="cls-3" d="M1067.38,802.52l-248.03-126.02,208.13-150.18,248.03,126.02-208.13,150.18ZM841.91,675.31l223.49,113.55,187.53-135.32-223.49-113.55-187.53,135.32Z"/>
          <path class="cls-3" d="M1062.91,766.02l-185.16-94.08,155.37-112.12,185.16,94.08-155.37,112.12ZM900.32,670.75l160.63,81.61,134.78-97.26-160.63-81.61-134.78,97.26Z"/>
          <path class="cls-3" d="M1057.36,727.61l-116.18-59.03,97.49-70.35,116.18,59.03-97.49,70.35ZM963.75,667.39l91.64,46.56,76.89-55.49-91.64-46.56-76.9,55.49Z"/>
          <path class="cls-3" d="M1051.8,690.22l-48.84-24.81,40.97-29.56,48.83,24.81-40.97,29.56ZM1025.53,664.21l24.29,12.34,20.38-14.71-24.29-12.34-20.38,14.71Z"/>
        </g>
      </g>
      <g>
        <path class="cls-3" d="M1284.94,637.67l-223.75-113.68,187.76-135.48,223.75,113.68-187.75,135.48ZM1083.76,522.79l199.21,101.21,167.16-120.62-199.21-101.21-167.16,120.62Z"/>
        <path class="cls-3" d="M1280.94,604.92l-167.36-85.03,140.43-101.33,167.36,85.03-140.43,101.33ZM1136.15,518.7l142.82,72.56,119.84-86.48-142.82-72.56-119.83,86.48Z"/>
        <path class="cls-3" d="M1275.96,570.47l-105.48-53.59,88.51-63.87,105.48,53.59-88.51,63.87ZM1193.05,515.68l80.94,41.12,67.92-49.01-80.94-41.12-67.91,49.01Z"/>
        <path class="cls-3" d="M1269.95,533.91l-37.4-19,31.38-22.65,37.4,19-31.38,22.65ZM1255.12,513.71l12.86,6.53,10.79-7.79-12.86-6.53-10.79,7.79Z"/>
      </g>
      <g>
        <path class="cls-3" d="M-87.99,991.3l-223.75-113.68,187.76-135.48,223.75,113.68-187.75,135.48ZM-289.17,876.42l199.21,101.21,167.16-120.62-199.21-101.21-167.16,120.62Z"/>
        <path class="cls-3" d="M-91.99,958.55l-167.36-85.03,140.43-101.33,167.36,85.03-140.43,101.33ZM-236.78,872.33l142.82,72.56,119.84-86.48-142.82-72.56-119.83,86.48Z"/>
      </g>
      <path class="cls-3" d="M-169.76,400.86l-223.75-113.68,187.76-135.48L18,265.38l-187.75,135.48ZM-370.94,285.98l199.21,101.21L-4.57,266.57l-199.21-101.21-167.16,120.62Z"/>
      <g>
        <path class="cls-3" d="M1757.59,615.12l-223.75-113.68,187.76-135.48,223.75,113.68-187.75,135.48ZM1556.4,500.24l199.21,101.21,167.16-120.62-199.21-101.21-167.16,120.62Z"/>
        <path class="cls-3" d="M1753.58,582.37l-167.36-85.03,140.43-101.33,167.36,85.03-140.43,101.33ZM1608.79,496.15l142.82,72.56,119.84-86.48-142.82-72.56-119.83,86.48Z"/>
        <path class="cls-3" d="M1748.6,547.92l-105.48-53.59,88.51-63.87,105.48,53.59-88.51,63.87ZM1665.69,493.13l80.94,41.12,67.92-49.01-80.94-41.12-67.91,49.01Z"/>
        <path class="cls-3" d="M1742.6,511.36l-37.4-19,31.38-22.65,37.4,19-31.38,22.65ZM1727.76,491.16l12.86,6.53,10.79-7.79-12.86-6.53-10.79,7.79Z"/>
      </g>
      <g>
        <path class="cls-3" d="M1541.72,780.66l-248.03-126.02,208.13-150.18,248.03,126.02-208.13,150.18ZM1316.25,653.44l223.49,113.55,187.53-135.32-223.49-113.55-187.53,135.32Z"/>
        <path class="cls-3" d="M1537.25,744.15l-185.16-94.08,155.37-112.12,185.16,94.08-155.37,112.12ZM1374.66,648.88l160.63,81.61,134.78-97.26-160.63-81.61-134.78,97.26Z"/>
        <path class="cls-3" d="M1531.71,705.74l-116.18-59.03,97.49-70.35,116.18,59.03-97.49,70.35ZM1438.09,645.52l91.64,46.56,76.89-55.49-91.64-46.56-76.9,55.49Z"/>
        <path class="cls-3" d="M1526.14,668.35l-48.84-24.81,40.97-29.56,48.83,24.81-40.97,29.56ZM1499.87,642.35l24.29,12.34,20.38-14.71-24.29-12.34-20.38,14.71Z"/>
      </g>
      <path class="cls-3" d="M77.76,557.04l-248.03-126.02L37.85,280.84l248.03,126.02-208.13,150.18ZM-147.71,429.83l223.49,113.55,187.53-135.32-223.49-113.55-187.53,135.32Z"/>
      <path class="cls-3" d="M73.29,520.53l-185.16-94.08,155.37-112.12,185.16,94.08-155.37,112.12ZM-89.3,425.26l160.63,81.61,134.78-97.26-160.63-81.61-134.78,97.26Z"/>
      <path class="cls-3" d="M67.74,482.12l-116.18-59.03,97.49-70.35,116.18,59.03-97.49,70.35ZM-25.87,421.9l91.64,46.56,76.89-55.49-91.64-46.56-76.9,55.49Z"/>
      <path class="cls-3" d="M63.41,444.62l-48.84-24.81,40.97-29.56,48.83,24.81-40.97,29.56ZM37.14,418.62l24.29,12.34,20.38-14.71-24.29-12.34-20.38,14.71Z"/>
      <g>
        <path class="cls-3" d="M556.67,538.81l-248.03-126.02,208.13-150.18,248.03,126.02-208.13,150.18ZM331.2,411.6l223.49,113.55,187.53-135.32-223.49-113.55-187.53,135.32Z"/>
        <path class="cls-3" d="M552.21,502.31l-185.16-94.08,155.37-112.12,185.16,94.08-155.37,112.12ZM389.61,407.04l160.63,81.61,134.78-97.26-160.63-81.61-134.78,97.26Z"/>
        <path class="cls-3" d="M546.66,463.9l-116.18-59.03,97.49-70.35,116.18,59.03-97.49,70.35ZM453.04,403.68l91.64,46.56,76.89-55.49-91.64-46.56-76.9,55.49Z"/>
        <path class="cls-3" d="M541.09,426.51l-48.84-24.81,40.97-29.56,48.83,24.81-40.97,29.56ZM514.82,400.51l24.29,12.34,20.38-14.71-24.29-12.34-20.38,14.71Z"/>
      </g>
      <g>
        <path class="cls-3" d="M1033.31,520.59l-248.03-126.02,208.13-150.18,248.03,126.02-208.13,150.18ZM807.84,393.38l223.49,113.55,187.53-135.32-223.49-113.55-187.53,135.32Z"/>
        <path class="cls-3" d="M1028.85,484.09l-185.16-94.08,155.37-112.12,185.16,94.08-155.37,112.12ZM866.25,388.82l160.63,81.61,134.78-97.26-160.63-81.61-134.78,97.26Z"/>
        <path class="cls-3" d="M1023.3,445.68l-116.18-59.03,97.49-70.35,116.18,59.03-97.49,70.35ZM929.68,385.46l91.64,46.56,76.89-55.49-91.64-46.56-76.9,55.49Z"/>
        <path class="cls-3" d="M1017.73,408.29l-48.84-24.81,40.97-29.56,48.83,24.81-40.97,29.56ZM991.46,382.28l24.29,12.34,20.38-14.71-24.29-12.34-20.38,14.71Z"/>
      </g>
      <g>
        <path class="cls-3" d="M1507.65,498.72l-248.03-126.02,208.13-150.18,248.03,126.02-208.13,150.18ZM1282.18,371.51l223.49,113.55,187.53-135.32-223.49-113.55-187.53,135.32Z"/>
        <path class="cls-3" d="M1503.19,462.22l-185.16-94.08,155.37-112.12,185.16,94.08-155.37,112.12ZM1340.59,366.95l160.63,81.61,134.78-97.26-160.63-81.61-134.78,97.26Z"/>
        <path class="cls-3" d="M1497.64,423.81l-116.18-59.03,97.49-70.35,116.18,59.03-97.49,70.35ZM1404.02,363.59l91.64,46.56,76.89-55.49-91.64-46.56-76.9,55.49Z"/>
        <path class="cls-3" d="M1492.07,386.42l-48.84-24.81,40.97-29.56,48.83,24.81-40.97,29.56ZM1465.8,360.42l24.29,12.34,20.38-14.71-24.29-12.34-20.38,14.71Z"/>
      </g>
      <g>
        <path class="cls-3" d="M1979.47,475.52l-248.03-126.02,208.13-150.18,248.03,126.02-208.13,150.18ZM1754,348.31l223.49,113.55,187.53-135.32-223.49-113.55-187.53,135.32Z"/>
        <path class="cls-3" d="M1975.01,439.02l-185.16-94.08,155.37-112.12,185.16,94.08-155.37,112.12ZM1812.41,343.75l160.63,81.61,134.78-97.26-160.63-81.61-134.78,97.26Z"/>
      </g>
      <g>
        <path class="cls-3" d="M1967.97,184.38l-248.03-126.02,208.13-150.18,248.03,126.02-208.13,150.18ZM1742.5,57.17l223.49,113.55,187.53-135.32-223.49-113.55-187.53,135.32Z"/>
        <path class="cls-3" d="M1963.5,147.88l-185.16-94.08,155.37-112.12,185.16,94.08-155.37,112.12ZM1800.91,52.61l160.63,81.61,134.78-97.26-160.63-81.61-134.78,97.26Z"/>
        <path class="cls-3" d="M1957.96,109.47l-116.18-59.03,97.49-70.35,116.18,59.03-97.49,70.35ZM1864.34,49.25l91.64,46.56,76.89-55.49-91.64-46.56-76.9,55.49Z"/>
      </g>
      <g>
        <path class="cls-3" d="M2013.31,762.1l-248.03-126.02,208.13-150.18,248.03,126.02-208.13,150.18ZM1787.84,634.89l223.49,113.55,187.53-135.32-223.49-113.55-187.53,135.32Z"/>
        <path class="cls-3" d="M2008.85,725.6l-185.16-94.08,155.37-112.12,185.16,94.08-155.37,112.12ZM1846.25,630.33l160.63,81.61,134.78-97.26-160.63-81.61-134.78,97.26Z"/>
      </g>
      <g>
        <g>
          <path class="cls-3" d="M36,249.16l-223.75-113.68L0,0l223.75,113.68L36,249.16ZM-165.19,134.29L34.02,235.5l167.16-120.62L1.97,13.66l-167.16,120.62Z"/>
          <path class="cls-3" d="M31.99,216.42l-167.36-85.03L5.06,30.05l167.36,85.03L31.99,216.42ZM-112.8,130.19L30.02,202.75l119.84-86.48L7.04,43.72l-119.83,86.48Z"/>
          <path class="cls-3" d="M27.01,181.96l-105.48-53.59L10.04,64.51l105.48,53.59-88.51,63.87ZM-55.9,127.18l80.94,41.12,67.92-49.01L12.01,78.17l-67.91,49.01Z"/>
          <path class="cls-3" d="M21.01,145.41l-37.4-19,31.38-22.65,37.4,19-31.38,22.65ZM6.17,125.21l12.86,6.53,10.79-7.79-12.86-6.53-10.79,7.79Z"/>
        </g>
        <g>
          <path class="cls-3" d="M292.77,392.15l-248.03-126.02L252.87,115.95l248.03,126.02-208.13,150.18ZM67.31,264.94l223.49,113.55,187.53-135.32-223.49-113.55-187.53,135.32Z"/>
          <path class="cls-3" d="M288.31,355.64l-185.16-94.08,155.37-112.12,185.16,94.08-155.37,112.12ZM125.71,260.37l160.63,81.61,134.78-97.26-160.63-81.61-134.78,97.26Z"/>
          <path class="cls-3" d="M282.76,317.24l-116.18-59.03,97.49-70.35,116.18,59.03-97.49,70.35ZM189.15,257.01l91.64,46.56,76.89-55.49-91.64-46.56-76.9,55.49Z"/>
          <path class="cls-3" d="M277.19,279.84l-48.84-24.81,40.97-29.56,48.83,24.81-40.97,29.56ZM250.93,253.84l24.29,12.34,20.38-14.71-24.29-12.34-20.38,14.71Z"/>
        </g>
      </g>
      <g>
        <g>
          <path class="cls-3" d="M514.91,230.94l-223.75-113.68L478.91-18.22l223.75,113.68-187.75,135.48ZM313.73,116.06l199.21,101.21,167.16-120.62L480.89-4.56l-167.16,120.62Z"/>
          <path class="cls-3" d="M510.91,198.19l-167.36-85.03L483.98,11.83l167.36,85.03-140.43,101.33ZM366.12,111.97l142.82,72.56,119.84-86.48L485.95,25.49l-119.83,86.48Z"/>
          <path class="cls-3" d="M505.93,163.74l-105.48-53.59,88.51-63.87,105.48,53.59-88.51,63.87ZM423.02,108.96l80.94,41.12,67.92-49.01-80.94-41.12-67.91,49.01Z"/>
          <path class="cls-3" d="M499.92,127.18l-37.4-19,31.38-22.65,37.4,19-31.38,22.65ZM485.09,106.99l12.86,6.53,10.79-7.79-12.86-6.53-10.79,7.79Z"/>
        </g>
        <g>
          <path class="cls-3" d="M771.69,373.93l-248.03-126.02,208.13-150.18,248.03,126.02-208.13,150.18ZM546.22,246.72l223.49,113.55,187.53-135.32-223.49-113.55-187.53,135.32Z"/>
          <path class="cls-3" d="M767.22,337.42l-185.16-94.08,155.37-112.12,185.16,94.08-155.37,112.12ZM604.63,242.15l160.63,81.61,134.78-97.26-160.63-81.61-134.78,97.26Z"/>
          <path class="cls-3" d="M761.67,299.01l-116.18-59.03,97.49-70.35,116.18,59.03-97.49,70.35ZM668.06,238.79l91.64,46.56,76.89-55.49-91.64-46.56-76.9,55.49Z"/>
          <path class="cls-3" d="M756.11,261.62l-48.84-24.81,40.97-29.56,48.83,24.81-40.97,29.56ZM729.84,235.62l24.29,12.34,20.38-14.71-24.29-12.34-20.38,14.71Z"/>
        </g>
      </g>
      <g>
        <g>
          <path class="cls-3" d="M991.55,212.72l-223.75-113.68,187.76-135.48,223.75,113.68-187.75,135.48ZM790.36,97.84l199.21,101.21,167.16-120.62-199.21-101.21-167.16,120.62Z"/>
          <path class="cls-3" d="M987.54,179.97l-167.36-85.03L960.62-6.39l167.36,85.03-140.43,101.33ZM842.75,93.75l142.82,72.56,119.84-86.48L962.59,7.27l-119.83,86.48Z"/>
          <path class="cls-3" d="M982.56,145.52l-105.48-53.59,88.51-63.87,105.48,53.59-88.51,63.87ZM899.65,90.73l80.94,41.12,67.92-49.01-80.94-41.12-67.91,49.01Z"/>
          <path class="cls-3" d="M976.56,108.96l-37.4-19,31.38-22.65,37.4,19-31.38,22.65ZM961.72,88.76l12.86,6.53,10.79-7.79-12.86-6.53-10.79,7.79Z"/>
        </g>
        <g>
          <path class="cls-3" d="M1248.32,355.7l-248.03-126.02,208.13-150.18,248.03,126.02-208.13,150.18ZM1022.86,228.49l223.49,113.55,187.53-135.32-223.49-113.55-187.53,135.32Z"/>
          <path class="cls-3" d="M1243.86,319.2l-185.16-94.08,155.37-112.12,185.16,94.08-155.37,112.12ZM1081.26,223.93l160.63,81.61,134.78-97.26-160.63-81.61-134.78,97.26Z"/>
          <path class="cls-3" d="M1238.31,280.79l-116.18-59.03,97.49-70.35,116.18,59.03-97.49,70.35ZM1144.7,220.57l91.64,46.56,76.89-55.49-91.64-46.56-76.9,55.49Z"/>
          <path class="cls-3" d="M1232.75,243.4l-48.84-24.81,40.97-29.56,48.83,24.81-40.97,29.56ZM1206.48,217.4l24.29,12.34,20.38-14.71-24.29-12.34-20.38,14.71Z"/>
        </g>
      </g>
      <g>
        <g>
          <path class="cls-3" d="M1465.89,190.85l-223.75-113.68,187.76-135.48,223.75,113.68-187.75,135.48ZM1264.71,75.97l199.21,101.21,167.16-120.62-199.21-101.21-167.16,120.62Z"/>
          <path class="cls-3" d="M1461.88,158.1l-167.36-85.03,140.43-101.33,167.36,85.03-140.43,101.33ZM1317.1,71.88l142.82,72.56,119.84-86.48-142.82-72.56-119.83,86.48Z"/>
          <path class="cls-3" d="M1456.9,123.65l-105.48-53.59,88.51-63.87,105.48,53.59-88.51,63.87ZM1373.99,68.87l80.94,41.12,67.92-49.01-80.94-41.12-67.91,49.01Z"/>
          <path class="cls-3" d="M1450.9,87.09l-37.4-19,31.38-22.65,37.4,19-31.38,22.65ZM1436.06,66.9l12.86,6.53,10.79-7.79-12.86-6.53-10.79,7.79Z"/>
        </g>
        <g>
          <path class="cls-3" d="M1722.66,333.84l-248.03-126.02,208.13-150.18,248.03,126.02-208.13,150.18ZM1497.2,206.62l223.49,113.55,187.53-135.32-223.49-113.55-187.53,135.32Z"/>
          <path class="cls-3" d="M1718.2,297.33l-185.16-94.08,155.37-112.12,185.16,94.08-155.37,112.12ZM1555.6,202.06l160.63,81.61,134.78-97.26-160.63-81.61-134.78,97.26Z"/>
          <path class="cls-3" d="M1712.65,258.92l-116.18-59.03,97.49-70.35,116.18,59.03-97.49,70.35ZM1619.04,198.7l91.64,46.56,76.89-55.49-91.64-46.56-76.9,55.49Z"/>
          <path class="cls-3" d="M1707.09,221.53l-48.84-24.81,40.97-29.56,48.83,24.81-40.97,29.56ZM1680.82,195.53l24.29,12.34,20.38-14.71-24.29-12.34-20.38,14.71Z"/>
        </g>
      </g>
      <path class="cls-3" d="M258.7,110.22L10.67-15.8l208.13-150.18,248.03,126.02-208.13,150.18ZM33.24-16.99l223.49,113.55L444.27-38.77l-223.49-113.55L33.24-16.99Z"/>
      <path class="cls-3" d="M254.24,73.71L69.08-20.36l155.37-112.12,185.16,94.08-155.37,112.12ZM91.64-21.56L252.27,60.05l134.78-97.26-160.63-81.61L91.64-21.56Z"/>
      <path class="cls-3" d="M248.69,35.3l-116.18-59.03,97.49-70.35,116.18,59.03-97.49,70.35ZM155.08-24.92l91.64,46.56,76.89-55.49-91.64-46.56-76.9,55.49Z"/>
      <g>
        <path class="cls-3" d="M737.62,92l-248.03-126.02,208.13-150.18,248.03,126.02-208.13,150.18ZM512.15-35.22l223.49,113.55,187.53-135.32-223.49-113.55-187.53,135.32Z"/>
        <path class="cls-3" d="M733.16,55.49l-185.16-94.08,155.37-112.12,185.16,94.08-155.37,112.12ZM570.56-39.78l160.63,81.61,134.78-97.26-160.63-81.61-134.78,97.26Z"/>
        <path class="cls-3" d="M727.61,17.08l-116.18-59.03,97.49-70.35,116.18,59.03-97.49,70.35ZM633.99-43.14L725.63,3.42l76.89-55.49-91.64-46.56-76.9,55.49Z"/>
      </g>
      <g>
        <path class="cls-3" d="M1214.26,73.77l-248.03-126.02,208.13-150.18,248.03,126.02-208.13,150.18ZM988.79-53.44l223.49,113.55,187.53-135.32-223.49-113.55-187.53,135.32Z"/>
        <path class="cls-3" d="M1209.79,37.27l-185.16-94.08,155.37-112.12,185.16,94.08-155.37,112.12ZM1047.19-58l160.63,81.61,134.78-97.26-160.63-81.61-134.78,97.26Z"/>
      </g>
      <g>
        <path class="cls-3" d="M1688.6,51.91l-248.03-126.02,208.13-150.18,248.03,126.02-208.13,150.18ZM1463.13-75.31l223.49,113.55,187.53-135.32-223.49-113.55-187.53,135.32Z"/>
        <path class="cls-3" d="M1684.13,15.4l-185.16-94.08,155.37-112.12,185.16,94.08-155.37,112.12ZM1521.53-79.87L1682.16,1.74l134.78-97.26-160.63-81.61-134.78,97.26Z"/>
      </g>
    </g>
  </g>
</svg>